G04 EasyPC Gerber Version 21.0.3 Build 4286 *
G04 #@! TF.Part,Single*
G04 #@! TF.FileFunction,Soldermask,Top *
G04 #@! TF.FilePolarity,Negative *
%FSLAX45Y45*%
%MOIN*%
G04 #@! TA.AperFunction,SMDPad*
%ADD95R,0.03559X0.04937*%
%ADD28R,0.04937X0.03559*%
%ADD96R,0.04346X0.04740*%
%ADD94R,0.06472X0.04583*%
%ADD147R,0.06906X0.05724*%
%ADD148R,0.05724X0.12811*%
%ADD146R,0.12811X0.05724*%
%ADD154R,0.07969X0.17024*%
%ADD149R,0.17024X0.07969*%
G04 #@! TA.AperFunction,ComponentPad*
%ADD157R,0.05134X0.05134*%
%ADD155R,0.05563X0.05563*%
%ADD29R,0.11630X0.11630*%
%ADD158C,0.05134*%
%ADD156C,0.05563*%
%ADD74C,0.07000*%
%ADD27C,0.07693*%
%ADD72C,0.11630*%
%ADD160C,0.15567*%
%ADD159C,0.19110*%
G04 #@! TA.AperFunction,WasherPad*
%ADD26C,0.25016*%
X0Y0D02*
D02*
D26*
X26708Y159499D03*
X26917Y29663D03*
X272570Y159499D03*
X274318Y31825D03*
D02*
D27*
X27925Y113446D03*
X37925D03*
X47925D03*
X57925D03*
X67925D03*
X168984Y30062D03*
Y50062D03*
D02*
D28*
X61903Y44749D03*
Y50300D03*
D02*
D29*
X32449Y55413D03*
X270578Y105459D03*
D02*
D72*
X32449Y71004D03*
X270578Y74278D03*
Y89869D03*
D02*
D74*
X52644Y148516D03*
X82565D03*
X111957Y156933D03*
X112082Y123736D03*
X118938Y149772D03*
X119063Y116574D03*
X126060Y156933D03*
X126185Y123736D03*
D02*
D94*
X61653Y56927D03*
Y63384D03*
X134448Y57426D03*
Y63883D03*
D02*
D95*
X138601Y28042D03*
Y36443D03*
X144152Y28042D03*
Y36443D03*
X227336Y35444D03*
X232887D03*
D02*
D96*
X242214Y34945D03*
X248513D03*
D02*
D146*
X76556Y27824D03*
Y63651D03*
X76595Y36722D03*
Y45698D03*
X120572Y28061D03*
X120611Y64006D03*
X120650Y46092D03*
D02*
D147*
X123554Y37076D03*
D02*
D148*
X89548Y67903D03*
X89587Y23848D03*
X98485Y67864D03*
X98603Y23848D03*
X107422Y23809D03*
X107461Y67943D03*
D02*
D149*
X85060Y63887D03*
X103052Y63897D03*
D02*
D154*
X116546Y59370D03*
D02*
D155*
X151361Y156317D03*
D02*
D156*
Y76317D03*
Y86317D03*
Y96317D03*
Y106317D03*
Y116317D03*
Y126317D03*
Y136317D03*
Y146317D03*
X182613Y76317D03*
Y86317D03*
Y96317D03*
Y106317D03*
Y116317D03*
Y126317D03*
Y136317D03*
Y146317D03*
Y156317D03*
D02*
D157*
X238749Y74882D03*
D02*
D158*
X208828D03*
Y84882D03*
Y94882D03*
Y104882D03*
Y114882D03*
Y124882D03*
Y134882D03*
Y144882D03*
Y154882D03*
Y164882D03*
X238749Y84882D03*
Y94882D03*
Y104882D03*
Y114882D03*
Y124882D03*
Y134882D03*
Y144882D03*
Y154882D03*
Y164882D03*
D02*
D159*
X24543Y91356D03*
X80478D03*
D02*
D160*
X44228D03*
X60793D03*
X0Y0D02*
M02*
