G04 EasyPC Gerber Version 21.0.3 Build 4286 *
G04 #@! TF.Part,Single*
G04 #@! TF.FileFunction,Copper,L1,Top *
G04 #@! TF.FilePolarity,Positive *
%FSLAX45Y45*%
%MOIN*%
G04 #@! TA.AperFunction,SMDPad*
%ADD92R,0.02559X0.03937*%
%ADD14R,0.03937X0.02559*%
%ADD93R,0.03346X0.03740*%
%ADD91R,0.05472X0.03583*%
%ADD87R,0.05906X0.04724*%
%ADD88R,0.04724X0.11811*%
%ADD86R,0.11811X0.04724*%
%ADD90R,0.06969X0.16024*%
%ADD89R,0.16024X0.06969*%
G04 #@! TA.AperFunction,ComponentPad*
%ADD71R,0.04134X0.04134*%
%ADD19R,0.04563X0.04563*%
%ADD15R,0.10630X0.10630*%
G04 #@! TD.AperFunction*
%ADD10C,0.00500*%
%ADD11C,0.01000*%
%ADD25C,0.01500*%
G04 #@! TA.AperFunction,ComponentPad*
%ADD20C,0.04134*%
%ADD70C,0.04563*%
G04 #@! TD.AperFunction*
%ADD24C,0.05000*%
G04 #@! TA.AperFunction,ViaPad*
%ADD23C,0.05600*%
G04 #@! TA.AperFunction,ComponentPad*
%ADD18C,0.06000*%
%ADD13C,0.06693*%
%ADD16C,0.10630*%
%ADD22C,0.14567*%
%ADD21C,0.18110*%
G04 #@! TA.AperFunction,WasherPad*
%ADD12C,0.24016*%
X0Y0D02*
D02*
D10*
X286889Y171525D02*
X278152D01*
G75*
G02X272570Y146241I-5581J-12026*
G01*
G75*
G02X266989Y171525J13258*
G01*
X32289*
G75*
G02X26708Y146241I-5581J-12026*
G01*
G75*
G02X14661Y153964J13258*
G01*
Y94278*
G75*
G02X34848Y91356I9882J-2922*
G01*
G75*
G02X14661Y88435I-10305*
G01*
Y34719*
G75*
G02X40175Y29663I12256J-5056*
G01*
G75*
G02X31973Y17407I-13258J0*
G01*
X85976*
Y31005*
X93200*
Y17407*
X94992*
Y31005*
X102216*
Y17407*
X103811*
Y30966*
X111035*
Y17407*
X286889*
Y27615*
G75*
G02X261060Y31825I-12572J4210*
G01*
G75*
G02X286889Y36035I13258*
G01*
Y171525*
X264011Y112025D02*
X277141D01*
Y98895*
X264011*
Y112025*
X43328Y113446D02*
G75*
G02X52521I4596D01*
G01*
G75*
G02X43328I-4596*
G01*
X264020Y90182D02*
G75*
G02X277143Y89869I6557J-313D01*
G01*
G75*
G02X268530Y83631I-6565*
G01*
X257624Y72631*
G75*
G02X257611Y72619I-3083J3070*
G01*
X242136Y57144*
G75*
G02X239372Y55999I-2763J2763*
G01*
X238749*
G75*
G02X237654Y56156J3907*
G01*
X231086*
Y38663*
X235417*
Y37444*
X239291*
Y38064*
X245137*
Y31824*
X239291*
Y33444*
X235417*
Y32226*
X230358*
Y33224*
G75*
G02X229866Y32676I-3022J2220*
G01*
Y32226*
X229260*
G75*
G02X225412I-1924J3219*
G01*
X224807*
Y32676*
G75*
G02X223586Y35444I2530J2769*
G01*
Y46312*
X171642*
G75*
G02X166326I-2658J3750*
G01*
X151361*
G75*
G02X147611Y50062J3750*
G01*
Y60524*
X136444*
G75*
G02X136346Y60468I-1997J3363*
G01*
X138433*
Y54385*
X130460*
Y59976*
X121279*
Y50107*
X120296*
Y49842*
X120650*
G75*
G02X121652Y49706J-3750*
G01*
X127807*
Y42481*
X121663*
G75*
G02X120650Y42342I-1013J3611*
G01*
X116546*
G75*
G02X115533Y42481J3751*
G01*
X113496*
Y43911*
G75*
G02X112796Y46092I3050J2181*
G01*
Y50107*
X111811*
Y59163*
X94322*
Y59155*
X75799*
Y59634*
X65639*
Y53887*
X62996*
G75*
G02X64672Y52828I-1094J-3587*
G01*
X65122*
Y52224*
G75*
G02Y48376I-3219J-1924*
G01*
Y47769*
X64670*
G75*
G02X64121Y47277I-2767J2532*
G01*
X65122*
Y46749*
X69441*
Y49312*
X83752*
Y42088*
X69441*
Y42749*
X65122*
Y42218*
X58685*
Y46550*
X53915*
G75*
G02X50165Y50300J3750*
G01*
Y63384*
G75*
G02X53915Y67134I3750*
G01*
X57903*
Y73977*
G75*
G02X57603Y75506I3750J1530*
G01*
G75*
G02X65703I4050*
G01*
G75*
G02X65403Y73977I-4050*
G01*
Y67134*
X69401*
Y67265*
X75554*
G75*
G02X75799Y67324I1003J-3615*
G01*
Y68623*
X85937*
Y75060*
X93161*
Y68623*
X93791*
Y68631*
X94874*
Y75021*
X102098*
Y68631*
X103850*
Y75100*
X111074*
Y68631*
X121279*
Y67791*
X133146*
G75*
G02X134448Y68024I1302J-3516*
G01*
X147611*
Y76240*
G75*
G02X149809Y79732I3750J77*
G01*
X158869Y88791*
Y125996*
X152298Y132567*
X151438*
G75*
G02X151284I-77J3751*
G01*
X149233*
G75*
G02X146580Y133667J3750*
G01*
X135258Y144989*
G75*
G02X134522Y146030I2649J2653*
G01*
X127585Y152967*
G75*
G02X122076Y155452I-1526J3967*
G01*
X116446Y161082*
X112881*
G75*
G02X113957Y153183I-924J-4148*
G01*
Y146100*
X125391Y134666*
X132666*
G75*
G02X134590Y133212J-2000*
G01*
X139485Y128317*
X148450*
G75*
G02X154893Y126317I2911J-2000*
G01*
G75*
G02X148450Y124317I-3531*
G01*
X138657*
G75*
G02X137241Y124904J2000*
G01*
X131479Y130666*
X124562*
G75*
G02X123146Y131254J2000*
G01*
X110544Y143856*
G75*
G02X109957Y145271I1413J1416*
G01*
Y153183*
G75*
G02X111033Y161082I2000J3750*
G01*
X74980*
X59650Y145754*
G75*
G02X56886Y144609I-2763J2763*
G01*
X54317*
G75*
G02X48394Y148516I-1673J3907*
G01*
G75*
G02X54313Y152424I4250*
G01*
X55269*
X70598Y167752*
G75*
G02X73362Y168897I2763J-2763*
G01*
X118063*
G75*
G02X120827Y167752I1J-3907*
G01*
X127745Y160835*
G75*
G02X128060Y160683I-1686J-3902*
G01*
X128922*
G75*
G02X131576Y159583J-3750*
G01*
X140557Y150602*
G75*
G02X141293Y149560I-2650J-2654*
G01*
X150787Y140067*
X151284*
G75*
G02X151438I77J-3751*
G01*
X153851*
G75*
G02X156505Y138967J-3750*
G01*
X165269Y130203*
G75*
G02X166369Y127549I-2650J-2654*
G01*
Y87238*
G75*
G02X165269Y84584I-3750*
G01*
X155111Y74427*
Y53812*
X166326*
G75*
G02X171642I2658J-3750*
G01*
X223586*
Y59906*
G75*
G02X227336Y63656I3750*
G01*
X234999*
Y84806*
G75*
G02Y84959I3750J77*
G01*
Y94806*
G75*
G02Y94959I3750J77*
G01*
Y104806*
G75*
G02Y104959I3750J77*
G01*
Y114806*
G75*
G02Y114959I3750J77*
G01*
Y124806*
G75*
G02Y124959I3750J77*
G01*
Y134806*
G75*
G02Y134959I3750J77*
G01*
Y144806*
G75*
G02Y144959I3750J77*
G01*
Y154806*
G75*
G02Y154959I3750J77*
G01*
Y164806*
G75*
G02X238749Y168633I3750J77*
G01*
G75*
G02X242500Y164882J-3751*
G01*
G75*
G02X242499Y164806I-3747*
G01*
Y154959*
G75*
G02Y154806I-3753J-77*
G01*
Y144959*
G75*
G02Y144806I-3753J-77*
G01*
Y134959*
G75*
G02X242500Y134882I-3746J-77*
G01*
G75*
G02X242499Y134806I-3750*
G01*
Y124959*
G75*
G02Y124806I-3753J-77*
G01*
Y114959*
G75*
G02X242500Y114882I-3750J-77*
G01*
G75*
G02X242499Y114806I-3747*
G01*
Y104959*
G75*
G02Y104806I-3753J-77*
G01*
Y94959*
G75*
G02Y94806I-3753J-77*
G01*
Y84959*
G75*
G02X242500Y84882I-3746J-77*
G01*
G75*
G02X242499Y84806I-3750*
G01*
Y68558*
X252080Y78139*
X264020Y90182*
X264013Y74278D02*
G75*
G02X277143I6565D01*
G01*
G75*
G02X264013I-6565*
G01*
X245590Y38064D02*
X251437D01*
Y31824*
X245590*
Y38064*
X164387Y30062D02*
G75*
G02X173580I4596D01*
G01*
G75*
G02X164387I-4596*
G01*
X141622Y39663D02*
X146681D01*
Y33226*
X146152*
Y31261*
X146681*
Y24824*
X141622*
Y31261*
X142152*
Y33226*
X141622*
Y39663*
X136070D02*
X141130D01*
Y33226*
X136070*
Y39663*
X119350Y40690D02*
X127756D01*
Y33466*
X119350*
Y40690*
X136070Y31261D02*
X141130D01*
Y24824*
X136070*
Y25884*
X127728*
Y24450*
X113417*
Y31674*
X127728*
Y30199*
X136070*
Y31261*
X69401Y31438D02*
X83712D01*
Y24214*
X69401*
Y31438*
X69441Y40336D02*
X83752D01*
Y33111*
X69441*
Y40336*
X114688Y149772D02*
G75*
G02X123188I4250D01*
G01*
G75*
G02X114688I-4250*
G01*
X121935Y123736D02*
G75*
G02X130435I4250D01*
G01*
G75*
G02X121935I-4250*
G01*
X148450Y118317D02*
G75*
G02X154893Y116317I2911J-2000D01*
G01*
G75*
G02X148450Y114317I-3531*
G01*
X139235*
X132540Y107621*
G75*
G02X130669Y106330I-1870J709*
G01*
X116076*
G75*
G02X114660Y106917J2000*
G01*
X110669Y110907*
G75*
G02X110082Y112323I1413J1416*
G01*
Y119986*
G75*
G02X107832Y123736I2000J3750*
G01*
G75*
G02X116332I4250*
G01*
G75*
G02X114082Y119986I-4250*
G01*
Y113152*
X116904Y110330*
X129591*
X136991Y117730*
G75*
G02X138407Y118317I1416J-1413*
G01*
X148450*
X114813Y116574D02*
G75*
G02X123313I4250D01*
G01*
G75*
G02X114813I-4250*
G01*
X147830Y86317D02*
G75*
G02X154893I3531D01*
G01*
G75*
G02X147830I-3531*
G01*
X151361Y99848D02*
G75*
G02Y92785J-3531D01*
G01*
G75*
G02Y99848J3531*
G01*
X147830Y106317D02*
G75*
G02X154893I3531D01*
G01*
G75*
G02X147830I-3531*
G01*
X78315Y148516D02*
G75*
G02X86815I4250D01*
G01*
G75*
G02X78315I-4250*
G01*
X63328Y113446D02*
G75*
G02X72521I4596D01*
G01*
G75*
G02X63328I-4596*
G01*
X70173Y91356D02*
G75*
G02X90783I10305D01*
G01*
G75*
G02X70173I-10305*
G01*
X53328Y113446D02*
G75*
G02X62521I4596D01*
G01*
G75*
G02X53328I-4596*
G01*
X147830Y146317D02*
G75*
G02X154893I3531D01*
G01*
G75*
G02X147830I-3531*
G01*
X206181Y166882D02*
G75*
G02X212144Y164882I2646J-2000D01*
G01*
G75*
G02X206181Y162882I-3317*
G01*
X159819*
X154893Y157956*
Y152785*
X147830*
Y159848*
X151128*
X157575Y166295*
G75*
G02X158991Y166882I1416J-1413*
G01*
X206181*
Y76882D02*
G75*
G02X212144Y74882I2646J-2000D01*
G01*
G75*
G02X206181Y72882I-3317*
G01*
X183434*
G75*
G02X179081Y76317I-821J3435*
G01*
G75*
G02X186099Y76882I3531*
G01*
X206181*
X209843Y88040D02*
G75*
G02X208828Y81565I-1015J-3157D01*
G01*
G75*
G02X205559Y84317J3317*
G01*
X185524*
G75*
G02X179081Y86317I-2911J2000*
G01*
G75*
G02X185524Y88317I3531*
G01*
X208828*
G75*
G02X209843Y88040I0J-2000*
G01*
Y98040D02*
G75*
G02X208828Y91565I-1015J-3157D01*
G01*
G75*
G02X205559Y94317J3317*
G01*
X185524*
G75*
G02X179081Y96317I-2911J2000*
G01*
G75*
G02X185524Y98317I3531*
G01*
X208828*
G75*
G02X209843Y98040I0J-2000*
G01*
X206181Y106882D02*
G75*
G02X212144Y104882I2646J-2000D01*
G01*
G75*
G02X206181Y102882I-3317*
G01*
X183434*
G75*
G02X179081Y106317I-821J3435*
G01*
G75*
G02X186099Y106882I3531*
G01*
X206181*
X209843Y118040D02*
G75*
G02X208828Y111565I-1015J-3157D01*
G01*
G75*
G02X205559Y114317J3317*
G01*
X185524*
G75*
G02X179081Y116317I-2911J2000*
G01*
G75*
G02X185524Y118317I3531*
G01*
X208828*
G75*
G02X209843Y118040I0J-2000*
G01*
Y128040D02*
G75*
G02X208828Y121565I-1015J-3157D01*
G01*
G75*
G02X205559Y124317J3317*
G01*
X185524*
G75*
G02X179081Y126317I-2911J2000*
G01*
G75*
G02X185524Y128317I3531*
G01*
X208828*
G75*
G02X209843Y128040I0J-2000*
G01*
Y138040D02*
G75*
G02X208828Y131565I-1015J-3157D01*
G01*
G75*
G02X205559Y134317J3317*
G01*
X185524*
G75*
G02X179081Y136317I-2911J2000*
G01*
G75*
G02X185524Y138317I3531*
G01*
X208828*
G75*
G02X209843Y138040I0J-2000*
G01*
Y148040D02*
G75*
G02X208828Y141565I-1015J-3157D01*
G01*
G75*
G02X205559Y144317J3317*
G01*
X185524*
G75*
G02X179081Y146317I-2911J2000*
G01*
G75*
G02X185524Y148317I3531*
G01*
X208828*
G75*
G02X209843Y148040I0J-2000*
G01*
Y158040D02*
G75*
G02X208828Y151565I-1015J-3157D01*
G01*
G75*
G02X205559Y154317J3317*
G01*
X185524*
G75*
G02X179081Y156317I-2911J2000*
G01*
G75*
G02X185524Y158317I3531*
G01*
X208828*
G75*
G02X209843Y158040I0J-2000*
G01*
X33328Y113446D02*
G75*
G02X42521I4596D01*
G01*
G75*
G02X33328I-4596*
G01*
X52511Y93411D02*
G75*
G02X69327Y91356I8282J-2054D01*
G01*
G75*
G02X52511Y89302I-8533*
G01*
G75*
G02X35695Y91356I-8283J2054*
G01*
G75*
G02X52511Y93411I8533*
G01*
X23328Y113446D02*
G75*
G02X32521I4596D01*
G01*
G75*
G02X23328I-4596*
G01*
X25884Y71004D02*
G75*
G02X39014I6565D01*
G01*
G75*
G02X25884I-6565*
G01*
X25885Y61978D02*
X39015D01*
Y48848*
X25885*
Y61978*
X85976Y30062D02*
G36*
X83712D01*
Y24214*
X69401*
Y30062*
X40169*
G75*
G02X40175Y29663I-13254J-396*
G01*
G75*
G02X32541Y17657I-13258*
G01*
X85976*
Y30062*
G37*
X94992D02*
G36*
X93200D01*
Y17657*
X94992*
Y30062*
G37*
X103811D02*
G36*
X102216D01*
Y17657*
X103811*
Y30062*
G37*
X261178D02*
G36*
X173580D01*
G75*
G02X164387I-4596*
G01*
X146681*
Y24824*
X141622*
Y30062*
X141130*
Y24824*
X136070*
Y25884*
X127728*
Y24450*
X113417*
Y30062*
X111035*
Y17657*
X286639*
Y26931*
G75*
G02X261178Y30062I-12322J4894*
G01*
G37*
X141622Y34944D02*
G36*
X141130D01*
Y33226*
X136070*
Y34944*
X127756*
Y33466*
X119350*
Y34944*
X83752*
Y33111*
X69441*
Y34944*
X39077*
G75*
G02X40169Y30062I-12161J-5283*
G01*
X69401*
Y31438*
X83712*
Y30062*
X85976*
Y31005*
X93200*
Y30062*
X94992*
Y31005*
X102216*
Y30062*
X103811*
Y30966*
X111035*
Y30062*
X113417*
Y31674*
X127728*
Y30199*
X136070*
Y31261*
X141130*
Y30062*
X141622*
Y31261*
X142152*
Y33226*
X141622*
Y34944*
G37*
X261432D02*
G36*
X251437D01*
Y31824*
X245590*
Y34944*
X245137*
Y31824*
X239291*
Y33444*
X235417*
Y32226*
X230358*
Y33224*
G75*
G02X229866Y32676I-3042J2239*
G01*
Y32226*
X229260*
G75*
G02X225412I-1924J3220*
G01*
X224807*
Y32676*
G75*
G02X223619Y34944I2531J2770*
G01*
X146681*
Y33226*
X146152*
Y31261*
X146681*
Y30062*
X164387*
G75*
G02X173580I4596*
G01*
X261178*
G75*
G02X261060Y31825I13140J1763*
G01*
Y31825*
Y31826*
G75*
G02X261432Y34944I13258J0*
G01*
G37*
X223619D02*
G36*
G75*
G02X223586Y35444I3719J500D01*
G01*
Y46312*
X171642*
G75*
G02X166326I-2658J3750*
G01*
X151361*
G75*
G02X147611Y50062J3750*
G01*
Y55413*
X138433*
Y54385*
X130460*
Y55413*
X121279*
Y50107*
X120296*
Y49842*
X120650*
G75*
G02X121652Y49706I0J-3753*
G01*
X127807*
Y42481*
X121663*
G75*
G02X120650Y42342I-1013J3613*
G01*
X116546*
G75*
G02X115533Y42481I0J3753*
G01*
X113496*
Y43911*
G75*
G02X112796Y46092I3049J2181*
G01*
Y46092*
Y50107*
X111811*
Y55413*
X65639*
Y53887*
X62996*
G75*
G02X64672Y52828I-1098J-3593*
G01*
X65122*
Y52224*
G75*
G02X65653Y50300I-3220J-1924*
G01*
G75*
G02X65122Y48376I-3751*
G01*
Y47769*
X64670*
G75*
G02X64121Y47277I-2789J2556*
G01*
X65122*
Y46749*
X69441*
Y49312*
X83752*
Y42088*
X69441*
Y42749*
X65122*
Y42218*
X58685*
Y46550*
X53915*
G75*
G02X50165Y50300J3750*
G01*
Y55413*
X39015*
Y48848*
X25885*
Y55413*
X14911*
Y35286*
G75*
G02X39077Y34944I12006J-5624*
G01*
X69441*
Y40336*
X83752*
Y34944*
X119350*
Y40690*
X127756*
Y34944*
X136070*
Y39663*
X141130*
Y34944*
X141622*
Y39663*
X146681*
Y34944*
X223619*
G37*
X223586Y55413D02*
G36*
X155111D01*
Y53812*
X166326*
G75*
G02X171642I2658J-3750*
G01*
X223586*
Y55413*
G37*
X286639Y36719D02*
G36*
Y55413D01*
X231086*
Y38663*
X235417*
Y37444*
X239291*
Y38064*
X245137*
Y34944*
X245590*
Y38064*
X251437*
Y34944*
X261432*
G75*
G02X286639Y36719I12886J-3119*
G01*
G37*
X50165Y55413D02*
G36*
Y63384D01*
G75*
G02X53915Y67134I3750*
G01*
X57903*
Y73977*
G75*
G02X57794Y74278I3742J1530*
G01*
X38139*
G75*
G02X39014Y71004I-5690J-3274*
G01*
G75*
G02X25884I-6565*
G01*
G75*
G02X26759Y74278I6565*
G01*
X14911*
Y55413*
X25885*
Y61978*
X39015*
Y55413*
X50165*
G37*
X85937Y74278D02*
G36*
X65512D01*
G75*
G02X65403Y73977I-3854J1225*
G01*
Y67134*
X69401*
Y67265*
X75554*
G75*
G02X75799Y67324I1027J-3716*
G01*
Y68623*
X85937*
Y74278*
G37*
X111811Y55413D02*
G36*
Y59163D01*
X94322*
Y59155*
X75799*
Y59634*
X65639*
Y55413*
X111811*
G37*
X94874Y74278D02*
G36*
X93161D01*
Y68623*
X93791*
Y68631*
X94874*
Y74278*
G37*
X103850D02*
G36*
X102098D01*
Y68631*
X103850*
Y74278*
G37*
X147611D02*
G36*
X111074D01*
Y68631*
X121279*
Y67791*
X133146*
G75*
G02X134448Y68024I1301J-3507*
G01*
X147611*
Y74278*
G37*
X130460Y55413D02*
G36*
Y59976D01*
X121279*
Y55413*
X130460*
G37*
X147611D02*
G36*
Y60524D01*
X136444*
G75*
G02X136346Y60468I-3011J5130*
G01*
X138433*
Y55413*
X147611*
G37*
X234999Y74278D02*
G36*
X212089D01*
G75*
G02X206181Y72882I-3261J604*
G01*
X183434*
G75*
G02X179730Y74278I-821J3435*
G01*
X155111*
Y55413*
X223586*
Y59906*
G75*
G02X227336Y63656I3750*
G01*
X234999*
Y74278*
G37*
X259257D02*
G36*
X257624Y72631D01*
G75*
G02X257611Y72619I-114J101*
G01*
X242136Y57144*
G75*
G02X239372Y55999I-2763J2763*
G01*
X238749*
G75*
G02X237654Y56156J3907*
G01*
X231086*
Y55413*
X286639*
Y74278*
X277143*
G75*
G02X264013I-6565*
G01*
X259257*
G37*
X248219D02*
G36*
X242499D01*
Y68558*
X248219Y74278*
G37*
X156395Y86317D02*
G36*
X154893D01*
G75*
G02X147830I-3531*
G01*
X89467*
G75*
G02X71489I-8989J5039*
G01*
X67680*
G75*
G02X53907I-6886J5039*
G01*
X51115*
G75*
G02X37342I-6887J5040*
G01*
X33532*
G75*
G02X15554I-8989J5039*
G01*
X14911*
Y74278*
X26759*
G75*
G02X38139I5690J-3274*
G01*
X57794*
G75*
G02X57603Y75505I3850J1226*
G01*
G75*
G02Y75506I4101J1*
G01*
G75*
G02X65703I4050*
G01*
G75*
G02X65512Y74278I-4045*
G01*
X85937*
Y75060*
X93161*
Y74278*
X94874*
Y75021*
X102098*
Y74278*
X103850*
Y75100*
X111074*
Y74278*
X147611*
Y76240*
G75*
G02X147610Y76317I3746J77*
G01*
G75*
G02X149809Y79732I3752*
G01*
X156395Y86317*
G37*
X234999D02*
G36*
X211818D01*
G75*
G02X212144Y84882I-2990J-1435*
G01*
G75*
G02X208828Y81565I-3317*
G01*
G75*
G02X205559Y84317J3317*
G01*
X185524*
G75*
G02X179081Y86317I-2911J2000*
G01*
Y86317*
X166254*
G75*
G02X165269Y84584I-3633J920*
G01*
X155111Y74427*
Y74278*
X179730*
G75*
G02X179081Y76317I2883J2039*
G01*
G75*
G02X186099Y76882I3531*
G01*
X206181*
G75*
G02X212144Y74882I2646J-2000*
G01*
G75*
G02X212089Y74278I-3318*
G01*
X234999*
Y84806*
G75*
G02X234998Y84882I3743J77*
G01*
G75*
G02X234999Y84959I3744*
G01*
Y86317*
G37*
X260188D02*
G36*
X242499D01*
Y84959*
G75*
G02X242500Y84882I-366557J-3798*
G01*
G75*
G03X242499Y84806I366557J-3798*
G01*
Y74278*
X248219*
X252080Y78139*
X260188Y86317*
G37*
X276099D02*
G36*
G75*
G02X268530Y83631I-5521J3552D01*
G01*
X259257Y74278*
X264013*
G75*
G02X277143I6565*
G01*
X286639*
Y86317*
X276099*
G37*
X15554D02*
G36*
G75*
G02X14911Y87694I8989J5039D01*
G01*
Y86317*
X15554*
G37*
X15511Y96317D02*
G36*
X14911D01*
Y95019*
G75*
G02X15511Y96317I9633J-3662*
G01*
G37*
X37285D02*
G36*
X33576D01*
G75*
G02X34848Y91356I-9033J-4961*
G01*
G75*
G02X33532Y86317I-10306*
G01*
X37342*
G75*
G02X35695Y91356I6887J5039*
G01*
G75*
G02X37285Y96317I8534J0*
G01*
G37*
X53907Y86317D02*
G36*
G75*
G02X52511Y89302I6887J5040D01*
G01*
G75*
G02X51115Y86317I-8283J2055*
G01*
X53907*
G37*
X53850Y96317D02*
G36*
X51172D01*
G75*
G02X52511Y93411I-6944J-4961*
G01*
G75*
G02X53850Y96317I8282J-2054*
G01*
G37*
X71446D02*
G36*
X67737D01*
G75*
G02X69327Y91356I-6944J-4960*
G01*
G75*
G02X67680Y86317I-8533*
G01*
X71489*
G75*
G02X70173Y91356I8989J5039*
G01*
G75*
G02X71446Y96317I10305*
G01*
G37*
X158869D02*
G36*
X154893D01*
G75*
G02X151361Y92785I-3531*
G01*
G75*
G02X147830Y96317J3531*
G01*
X89511*
G75*
G02X90783Y91356I-9033J-4961*
G01*
G75*
G02X89467Y86317I-10306*
G01*
X147830*
G75*
G02X154893I3531*
G01*
X156395*
X158869Y88791*
Y96317*
G37*
X234999D02*
G36*
X211818D01*
G75*
G02X212144Y94882I-2990J-1435*
G01*
G75*
G02X208828Y91565I-3317*
G01*
G75*
G02X205559Y94317J3317*
G01*
X185524*
G75*
G02X179081Y96317I-2911J2000*
G01*
Y96317*
X166369*
Y87238*
G75*
G02Y87237I-5013J0*
G01*
G75*
G02X166254Y86317I-3748J0*
G01*
X179081*
Y86317*
G75*
G02X185524Y88317I3531*
G01*
X208828*
G75*
G02X209843Y88040I1J-1996*
G01*
G75*
G02X211818Y86317I-1015J-3158*
G01*
X234999*
Y94806*
G75*
G02X234998Y94882I3743J77*
G01*
G75*
G02X234999Y94959I3744*
G01*
Y96317*
G37*
X260188Y86317D02*
G36*
X264020Y90182D01*
G75*
G02X269346Y96317I6557J-313*
G01*
X242499*
Y94959*
G75*
G02X242500Y94882I-3743J-77*
G01*
G75*
G02X242499Y94806I-3744*
G01*
Y86317*
X260188*
G37*
X276099D02*
G36*
X286639D01*
Y96317*
X271809*
G75*
G02X277143Y89869I-1231J-6448*
G01*
G75*
G02X276099Y86317I-6565*
G01*
G37*
X158869Y105460D02*
G36*
X154787D01*
G75*
G02X147935I-3426J857*
G01*
X14911*
Y96317*
X15511*
G75*
G02X33576I9033J-4961*
G01*
X37285*
G75*
G02X51172I6944J-4961*
G01*
X53850*
G75*
G02X67737I6944J-4961*
G01*
X71446*
G75*
G02X89511I9033J-4961*
G01*
X147830*
G75*
G02X151361Y99848I3531*
G01*
G75*
G02X154893Y96317J-3531*
G01*
X158869*
Y105460*
G37*
X234999D02*
G36*
X212094D01*
G75*
G02X212144Y104882I-3267J-578*
G01*
G75*
G02X206181Y102882I-3317*
G01*
X183434*
G75*
G02X179187Y105460I-821J3435*
G01*
X166369*
Y96317*
X179081*
Y96317*
G75*
G02X185524Y98317I3531*
G01*
X208828*
G75*
G02X209843Y98040I1J-1996*
G01*
G75*
G02X211818Y96317I-1015J-3158*
G01*
X234999*
Y104806*
G75*
G02X234998Y104882I3743J77*
G01*
G75*
G02X234999Y104959I3744*
G01*
Y105460*
G37*
X277141D02*
G36*
Y98895D01*
X264011*
Y105460*
X242499*
Y104959*
G75*
G02X242500Y104882I-3743J-77*
G01*
G75*
G02X242499Y104806I-3744*
G01*
Y96317*
X269346*
G75*
G02X271809I1231J-6449*
G01*
X286639*
Y105460*
X277141*
G37*
X158869Y113446D02*
G36*
X153419D01*
G75*
G02X149304I-2057J2870*
G01*
X138365*
X132540Y107621*
G75*
G02X130669Y106330I-1870J709*
G01*
X116076*
G75*
G02X114660Y106917J2000*
G01*
X110669Y110907*
G75*
G02X110082Y112323I1413J1416*
G01*
Y113446*
X72521*
G75*
G02X63328I-4596*
G01*
X62521*
G75*
G02X53328I-4596*
G01*
X52521*
G75*
G02X43328I-4596*
G01*
X42521*
G75*
G02X33328I-4596*
G01*
X32521*
G75*
G02X23328I-4596*
G01*
X14911*
Y105460*
X147935*
G75*
G02X147830Y106317I3426J857*
G01*
G75*
G02X154893I3531*
G01*
G75*
G02X154787Y105460I-3531J0*
G01*
X158869*
Y113446*
G37*
X132708D02*
G36*
X121940D01*
G75*
G02X116185I-2877J3128*
G01*
X114082*
Y113152*
X116904Y110330*
X129591*
X132708Y113446*
G37*
X234999D02*
G36*
X211817D01*
G75*
G02X208828Y111565I-2990J1435*
G01*
G75*
G02X205837Y113446J3317*
G01*
X184670*
G75*
G02X180556I-2057J2870*
G01*
X166369*
Y105460*
X179187*
G75*
G02X179081Y106317I3426J857*
G01*
G75*
G02X186099Y106882I3531*
G01*
X206181*
G75*
G02X212094Y105460I2646J-2000*
G01*
X234999*
Y113446*
G37*
X242499D02*
G36*
Y105460D01*
X264011*
Y112025*
X277141*
Y105460*
X286639*
Y113446*
X242499*
G37*
X107832Y123736D02*
G36*
X14911D01*
Y113446*
X23328*
G75*
G02X32521I4596*
G01*
X33328*
G75*
G02X42521I4596*
G01*
X43328*
G75*
G02X52521I4596*
G01*
X53328*
G75*
G02X62521I4596*
G01*
X63328*
G75*
G02X72521I4596*
G01*
X110082*
Y119986*
G75*
G02X107832Y123735I1999J3750*
G01*
Y123736*
G37*
X158869D02*
G36*
X153772D01*
G75*
G02X148951I-2410J2581*
G01*
X130435*
G75*
G02X121935I-4250*
G01*
X116332*
Y123735*
G75*
G02X114082Y119986I-4249*
G01*
Y113446*
X116185*
G75*
G02X114813Y116574I2877J3128*
G01*
G75*
G02X123313I4250*
G01*
G75*
G02X121940Y113446I-4250*
G01*
X132708*
X136991Y117730*
G75*
G02X138407Y118317I1416J-1413*
G01*
X148450*
G75*
G02X154893Y116317I2911J-2000*
G01*
Y116317*
G75*
G02X153419Y113446I-3531*
G01*
X158869*
Y123736*
G37*
X149304Y113446D02*
G36*
G75*
G02X148450Y114317I2057J2870D01*
G01*
X139235*
X138365Y113446*
X149304*
G37*
X234999Y123736D02*
G36*
X211940D01*
G75*
G02X208828Y121565I-3112J1146*
G01*
G75*
G02X205715Y123736J3317*
G01*
X185023*
G75*
G02X180202I-2410J2581*
G01*
X166369*
Y113446*
X180556*
G75*
G02X179081Y116317I2057J2870*
G01*
Y116317*
Y116317*
G75*
G02X185524Y118317I3531*
G01*
X208828*
G75*
G02X209843Y118040I1J-1996*
G01*
G75*
G02X212144Y114882I-1015J-3157*
G01*
G75*
G02X211817Y113446I-3317J1*
G01*
X234999*
Y114806*
G75*
G02X234998Y114882I3743J77*
G01*
G75*
G02X234999Y114959I3744*
G01*
Y123736*
G37*
X205837Y113446D02*
G36*
G75*
G02X205559Y114317I2991J1436D01*
G01*
X185524*
G75*
G02X184670Y113446I-2911J1999*
G01*
X205837*
G37*
X242499Y123736D02*
G36*
Y114959D01*
G75*
G02X242500Y114882I-366557J-3798*
G01*
G75*
G02X242499Y114806I-366558J3721*
G01*
Y113446*
X286639*
Y123736*
X242499*
G37*
X148951D02*
G36*
G75*
G02X148450Y124317I2411J2582D01*
G01*
X138657*
G75*
G02X137241Y124904J2000*
G01*
X131479Y130666*
X124562*
G75*
G02X123146Y131254J2000*
G01*
X118693Y135707*
X14911*
Y123736*
X107832*
G75*
G02X116332I4250*
G01*
X121935*
G75*
G02X130435I4250*
G01*
X148951*
G37*
X158869D02*
G36*
Y125996D01*
X152298Y132567*
X151438*
G75*
G02X151284I-77J3743*
G01*
X149233*
G75*
G02X146580Y133667I-1J3748*
G01*
X144541Y135707*
X124350*
X125391Y134666*
X132666*
G75*
G02X134590Y133212I0J-1999*
G01*
X139485Y128317*
X148450*
G75*
G02X154893Y126317I2911J-2000*
G01*
Y126317*
G75*
G02X153772Y123736I-3531*
G01*
X158869*
G37*
X234999Y135707D02*
G36*
X212040D01*
G75*
G02X212144Y134882I-3212J-825*
G01*
G75*
G02X208828Y131565I-3317*
G01*
G75*
G02X205559Y134317J3317*
G01*
X185524*
G75*
G02X179135Y135707I-2911J2000*
G01*
X159765*
X165269Y130203*
G75*
G02X166369Y127550I-2648J-2653*
G01*
G75*
G02Y127549I-4511J0*
G01*
Y123736*
X180202*
G75*
G02X179081Y126317I2410J2581*
G01*
Y126317*
Y126317*
G75*
G02X185524Y128317I3531*
G01*
X208828*
G75*
G02X209843Y128040I1J-1996*
G01*
G75*
G02X212144Y124882I-1015J-3157*
G01*
G75*
G02X211940Y123736I-3317J1*
G01*
X234999*
Y124806*
G75*
G02X234998Y124882I3743J77*
G01*
G75*
G02X234999Y124959I3744*
G01*
Y134806*
G75*
G02X234998Y134882I3743J77*
G01*
G75*
G02X234999Y134959I3744*
G01*
Y135707*
G37*
X205715Y123736D02*
G36*
G75*
G02X205559Y124317I3113J1146D01*
G01*
X185524*
G75*
G02X185023Y123736I-2911J2001*
G01*
X205715*
G37*
X242499Y135707D02*
G36*
Y134959D01*
G75*
G02X242500Y134882I-366557J-3798*
G01*
G75*
G03X242499Y134806I366557J-3798*
G01*
Y124959*
G75*
G02X242500Y124882I-3743J-77*
G01*
G75*
G02X242499Y124806I-3744*
G01*
Y123736*
X286639*
Y135707*
X242499*
G37*
X118693D02*
G36*
X110544Y143856D01*
G75*
G02X109957Y145271I1413J1416*
G01*
Y146317*
X86202*
G75*
G02X78928I-3637J2199*
G01*
X60213*
X59650Y145754*
G75*
G02X56886Y144609I-2763J2763*
G01*
X54317*
G75*
G02X49007Y146317I-1673J3907*
G01*
X28126*
G75*
G02X26708Y146241I-1417J13184*
G01*
G75*
G02X25291Y146317J13261*
G01*
X14911*
Y135707*
X118693*
G37*
X144541D02*
G36*
X135258Y144989D01*
G75*
G02X134522Y146030I2644J2650*
G01*
X134235Y146317*
X121413*
G75*
G02X116463I-2475J3455*
G01*
X113957*
Y146100*
X124350Y135707*
X144541*
G37*
X234999Y146317D02*
G36*
X211818D01*
G75*
G02X212144Y144882I-2990J-1435*
G01*
G75*
G02X208828Y141565I-3317*
G01*
G75*
G02X205559Y144317J3317*
G01*
X185524*
G75*
G02X179081Y146317I-2911J2000*
G01*
Y146317*
X154893*
G75*
G02X147830I-3531*
G01*
X144537*
X150787Y140067*
X151284*
G75*
G02X151438I77J-3743*
G01*
X153851*
G75*
G02X156505Y138967I1J-3748*
G01*
X159765Y135707*
X179135*
G75*
G02X179081Y136317I3477J610*
G01*
Y136317*
Y136317*
G75*
G02X185524Y138317I3531*
G01*
X208828*
G75*
G02X209843Y138040I1J-1996*
G01*
G75*
G02X212040Y135707I-1015J-3157*
G01*
X234999*
Y144806*
G75*
G02X234998Y144882I3743J77*
G01*
G75*
G02X234999Y144959I3744*
G01*
Y146317*
G37*
X273988D02*
G36*
G75*
G02X272570Y146241I-1417J13184D01*
G01*
G75*
G02X271153Y146317I0J13259*
G01*
X242499*
Y144959*
G75*
G02X242500Y144882I-3743J-77*
G01*
G75*
G02X242499Y144806I-3744*
G01*
Y135707*
X286639*
Y146317*
X273988*
G37*
X17699Y149772D02*
G36*
X14911D01*
Y146317*
X25291*
G75*
G02X17699Y149772I1418J13182*
G01*
G37*
X48583D02*
G36*
X35717D01*
G75*
G02X28126Y146317I-9009J9727*
G01*
X49007*
G75*
G02X48394Y148516I3637J2200*
G01*
Y148517*
G75*
G02X48583Y149772I4250J0*
G01*
G37*
X78505D02*
G36*
X63669D01*
X60213Y146317*
X78928*
G75*
G02X78315Y148516I3637J2200*
G01*
G75*
G02X78505Y149772I4250*
G01*
G37*
X109957D02*
G36*
X86625D01*
G75*
G02X86815Y148516I-4061J-1256*
G01*
G75*
G02X86202Y146317I-4250J0*
G01*
X109957*
Y149772*
G37*
X114688D02*
G36*
X113957D01*
Y146317*
X116463*
G75*
G02X114688Y149772I2475J3455*
G01*
G37*
X134235Y146317D02*
G36*
X130780Y149772D01*
X123188*
G75*
G02X121413Y146317I-4250*
G01*
X134235*
G37*
X147830D02*
G36*
G75*
G02X150631Y149772I3531D01*
G01*
X141184*
G75*
G02X141293Y149560I-3267J-1816*
G01*
X144537Y146317*
X147830*
G37*
X179081D02*
G36*
Y146317D01*
G75*
G02X181881Y149772I3531*
G01*
X152091*
G75*
G02X154893Y146317I-730J-3455*
G01*
X179081*
G37*
X234999Y149772D02*
G36*
X183344D01*
G75*
G02X185524Y148317I-731J-3455*
G01*
X208828*
G75*
G02X209843Y148040I1J-1996*
G01*
G75*
G02X211818Y146317I-1015J-3158*
G01*
X234999*
Y149772*
G37*
X263561D02*
G36*
X242499D01*
Y146317*
X271153*
G75*
G02X263561Y149772I1418J13182*
G01*
G37*
X281579D02*
G36*
G75*
G02X273988Y146317I-9009J9727D01*
G01*
X286639*
Y149772*
X281579*
G37*
X17699D02*
G36*
G75*
G02X14911Y153449I9009J9727D01*
G01*
Y149772*
X17699*
G37*
X58551Y155707D02*
G36*
X39412D01*
G75*
G02X35717Y149772I-12704J3793*
G01*
X48583*
G75*
G02X54313Y152424I4060J-1256*
G01*
X55269*
X58551Y155707*
G37*
X107888D02*
G36*
X69604D01*
X63669Y149772*
X78505*
G75*
G02X86625I4060J-1256*
G01*
X109957*
Y153183*
G75*
G02X107888Y155707I2000J3750*
G01*
G37*
X130780Y149772D02*
G36*
X127585Y152967D01*
G75*
G02X122076Y155452I-1526J3967*
G01*
X121821Y155707*
X116026*
G75*
G02X113957Y153183I-4069J1227*
G01*
Y149772*
X114688*
G75*
G02X123188I4250*
G01*
X130780*
G37*
X234999Y155707D02*
G36*
X212040D01*
G75*
G02X212144Y154882I-3212J-825*
G01*
G75*
G02X208828Y151565I-3317*
G01*
G75*
G02X205559Y154317J3317*
G01*
X185524*
G75*
G02X179135Y155707I-2911J2000*
G01*
X154893*
Y152785*
X147830*
Y155707*
X135452*
X140557Y150602*
G75*
G02X141184Y149772I-2639J-2646*
G01*
X150631*
G75*
G02X152091I730J-3454*
G01*
X181881*
G75*
G02X183344I731J-3455*
G01*
X234999*
Y154806*
G75*
G02X234998Y154882I3743J77*
G01*
G75*
G02X234999Y154959I3744*
G01*
Y155707*
G37*
X259866D02*
G36*
X242499D01*
Y154959*
G75*
G02X242500Y154882I-3743J-77*
G01*
G75*
G02X242499Y154806I-3744*
G01*
Y149772*
X263561*
G75*
G02X259866Y155707I9009J9728*
G01*
G37*
X285274D02*
G36*
G75*
G02X281579Y149772I-12704J3793D01*
G01*
X286639*
Y155707*
X285274*
G37*
X63337Y160492D02*
G36*
X39929D01*
G75*
G02X39966Y159499I-13224J-995*
G01*
G75*
G02X39412Y155707I-13258*
G01*
X58551*
X63337Y160492*
G37*
X107888Y155707D02*
G36*
G75*
G02X107707Y156933I4069J1228D01*
G01*
G75*
G02X109633Y160492I4250*
G01*
X74389*
X69604Y155707*
X107888*
G37*
X121821D02*
G36*
X117036Y160492D01*
X114281*
G75*
G02X116207Y156933I-2324J-3558*
G01*
G75*
G02X116026Y155707I-4250J1*
G01*
X121821*
G37*
X151772Y160492D02*
G36*
X130107D01*
G75*
G02X131576Y159583I-1183J-3556*
G01*
X135452Y155707*
X147830*
Y159848*
X151128*
X151772Y160492*
G37*
X234999D02*
G36*
X157429D01*
X154893Y157956*
Y155707*
X179135*
G75*
G02X179081Y156317I3477J610*
G01*
Y156317*
Y156317*
G75*
G02X185524Y158317I3531*
G01*
X208828*
G75*
G02X209843Y158040I1J-1996*
G01*
G75*
G02X212040Y155707I-1015J-3157*
G01*
X234999*
Y160492*
G37*
X259350D02*
G36*
X242499D01*
Y155707*
X259866*
G75*
G02X259312Y159499I12704J3792*
G01*
G75*
G02X259350Y160492I13258J-2*
G01*
G37*
X285791D02*
G36*
G75*
G02X285828Y159499I-13224J-995D01*
G01*
G75*
G02X285274Y155707I-13258*
G01*
X286639*
Y160492*
X285791*
G37*
X109633D02*
G36*
G75*
G02X111033Y161082I2324J-3558D01*
G01*
X74980*
X74389Y160492*
X109633*
G37*
X117036D02*
G36*
X116446Y161082D01*
X112881*
G75*
G02X114281Y160492I-924J-4148*
G01*
X117036*
G37*
X259350D02*
G36*
G75*
G02X266480Y171275I13221J-993D01*
G01*
X32799*
G75*
G02X39929Y160492I-6091J-11776*
G01*
X63337*
X70598Y167752*
G75*
G02X73362Y168897I2763J-2763*
G01*
X118063*
G75*
G02X120827Y167752I1J-3907*
G01*
X127745Y160835*
G75*
G02X128060Y160683I-1674J-3875*
G01*
X128922*
G75*
G02X130107Y160492I1J-3749*
G01*
X151772*
X157575Y166295*
G75*
G02X158991Y166882I1416J-1413*
G01*
X206181*
G75*
G02X212144Y164882I2646J-2000*
G01*
G75*
G02X206181Y162882I-3317*
G01*
X159819*
X157429Y160492*
X234999*
Y164806*
G75*
G02X234998Y164882I3749J77*
G01*
G75*
G02X238749Y168633I3751*
G01*
G75*
G02X242500Y164882J-3751*
G01*
G75*
G02X242499Y164806I-366558J3721*
G01*
Y160492*
X259350*
G37*
X285791D02*
G36*
X286639D01*
Y171275*
X278661*
G75*
G02X285791Y160492I-6091J-11776*
G01*
G37*
D02*
D11*
X27634Y55413D02*
X25633D01*
X32449Y50598D02*
Y48600D01*
Y60228D02*
Y62230D01*
X37264Y55413D02*
X39263D01*
X63889Y56927D02*
X65889D01*
X96476Y69872D02*
X94622Y71727D01*
X96594Y21839D02*
X94740Y19985D01*
X96594Y25857D02*
X94740Y27711D01*
X100494Y69872D02*
X102346Y71725D01*
X100612Y21839D02*
X102464Y19987D01*
X100612Y25857D02*
X102464Y27709D01*
X103052Y60913D02*
Y58915D01*
Y66881D02*
Y68883D01*
X105453Y69951D02*
X103598Y71806D01*
X109470Y69951D02*
X111322Y71804D01*
X116438Y149772D02*
X114438D01*
X116563Y116574D02*
X114563D01*
X118938Y147272D02*
Y145272D01*
Y152272D02*
Y154272D01*
X119063Y114074D02*
Y112074D01*
Y119074D02*
Y121074D01*
X121438Y149772D02*
X123438D01*
X121563Y116574D02*
X123563D01*
X132212Y57426D02*
X130212D01*
X134448Y56135D02*
Y54135D01*
X136684Y57426D02*
X138685D01*
X137821Y36443D02*
X135822D01*
X138601Y34974D02*
Y32974D01*
Y37911D02*
Y39911D01*
X149580Y86317D02*
X147580D01*
X149580Y146317D02*
X147580D01*
X151361Y84535D02*
Y82535D01*
Y88098D02*
Y90098D01*
Y144535D02*
Y142535D01*
Y148098D02*
Y150098D01*
X153143Y86317D02*
X155143D01*
X153143Y146317D02*
X155143D01*
X166137Y30062D02*
X164137D01*
X168984Y27216D02*
Y25216D01*
Y32909D02*
Y34909D01*
X171830Y30062D02*
X173830D01*
X248513Y33575D02*
Y31576D01*
Y36315D02*
Y38316D01*
X249686Y34945D02*
X251685D01*
X265763Y105459D02*
X263763D01*
X270578Y100644D02*
Y98643D01*
Y110274D02*
Y112273D01*
X275393Y105459D02*
X277393D01*
D02*
D12*
X26708Y159499D03*
X26917Y29663D03*
X272570Y159499D03*
X274318Y31825D03*
D02*
D13*
X27925Y113446D03*
X37925D03*
X47925D03*
X57925D03*
X67925D03*
X168984Y30062D03*
Y50062D03*
D02*
D14*
X61903Y44749D03*
Y50300D03*
D02*
D15*
X32449Y55413D03*
X270578Y105459D03*
D02*
D16*
X32449Y71004D03*
X270578Y74278D03*
Y89869D03*
D02*
D18*
X52644Y148516D03*
X82565D03*
X111957Y156933D03*
X112082Y123736D03*
X118938Y149772D03*
X119063Y116574D03*
X126060Y156933D03*
X126185Y123736D03*
D02*
D19*
X151361Y156317D03*
D02*
D70*
Y76317D03*
Y86317D03*
Y96317D03*
Y106317D03*
Y116317D03*
Y126317D03*
Y136317D03*
Y146317D03*
X182613Y76317D03*
Y86317D03*
Y96317D03*
Y106317D03*
Y116317D03*
Y126317D03*
Y136317D03*
Y146317D03*
Y156317D03*
D02*
D71*
X238749Y74882D03*
D02*
D20*
X208828D03*
Y84882D03*
Y94882D03*
Y104882D03*
Y114882D03*
Y124882D03*
Y134882D03*
Y144882D03*
Y154882D03*
Y164882D03*
X238749Y84882D03*
Y94882D03*
Y104882D03*
Y114882D03*
Y124882D03*
Y134882D03*
Y144882D03*
Y154882D03*
Y164882D03*
D02*
D21*
X24543Y91356D03*
X80478D03*
D02*
D22*
X44228D03*
X60793D03*
D02*
D23*
X61653Y75506D03*
D02*
D24*
X52644Y148516D02*
X56887D01*
X73361Y164990*
X118064*
X126060Y156994*
Y156933*
X61653Y63384D02*
Y75506D01*
Y63384D02*
X76556D01*
Y63651*
X61903Y50300D02*
X53915D01*
Y63384*
X61653*
X120650Y46092D02*
X116546D01*
Y59370*
X134448Y63883D02*
Y64274D01*
X151361*
X134448Y63883D02*
X120611D01*
Y64006*
X151361Y64274D02*
Y50062D01*
X168984*
X151361Y76317D02*
X151698D01*
X162619Y87238*
Y127549*
X153851Y136317*
X151361*
Y76317D02*
Y64274D01*
Y136317D02*
X149233D01*
X137908Y147643*
Y147948*
X128922Y156933*
X126060*
X227336Y35444D02*
Y59906D01*
Y50062*
X168984*
X227336Y59906D02*
X238749D01*
X239373*
X254848Y75381*
Y75506*
X269211Y89869*
X270578*
X238749Y74882D02*
Y59906D01*
Y74882D02*
Y84882D01*
Y94882D02*
Y84882D01*
Y104882D02*
Y94882D01*
Y114882D02*
Y104882D01*
Y124882D02*
Y114882D01*
Y124882D02*
Y134882D01*
Y144882D02*
Y134882D01*
Y144882D02*
Y154882D01*
Y164882*
D02*
D25*
X61903Y44749D02*
X76595D01*
Y45698*
X111957Y156933D02*
Y145271D01*
X124562Y132666*
X132666*
Y132307*
X138657Y126317*
X151361*
X138601Y28042D02*
Y28061D01*
X120572*
X144152Y28042D02*
Y36443D01*
X151361Y116317D02*
X138407D01*
X130669Y108579*
Y108330*
X116076*
X112082Y112323*
Y123736*
X151361Y156317D02*
Y157252D01*
X158991Y164882*
X208828*
X182613Y76317D02*
Y74882D01*
X208828*
X182613Y86317D02*
X208828D01*
Y84882*
X182613Y96317D02*
X208828D01*
Y94882*
X182613Y106317D02*
Y104882D01*
X208828*
X182613Y116317D02*
X208828D01*
Y114882*
X182613Y126317D02*
X208828D01*
Y124882*
X182613Y136317D02*
X208828D01*
Y134882*
X182613Y146317D02*
X208828D01*
Y144882*
X182613Y156317D02*
X208828D01*
Y154882*
X232887Y35444D02*
X242214D01*
Y34945*
D02*
D86*
X76556Y27824D03*
Y63651D03*
X76595Y36722D03*
Y45698D03*
X120572Y28061D03*
X120611Y64006D03*
X120650Y46092D03*
D02*
D87*
X123554Y37076D03*
D02*
D88*
X89548Y67903D03*
X89587Y23848D03*
X98485Y67864D03*
X98603Y23848D03*
X107422Y23809D03*
X107461Y67943D03*
D02*
D89*
X85060Y63887D03*
X103052Y63897D03*
D02*
D90*
X116546Y59370D03*
D02*
D91*
X61653Y56927D03*
Y63384D03*
X134448Y57426D03*
Y63883D03*
D02*
D92*
X138601Y28042D03*
Y36443D03*
X144152Y28042D03*
Y36443D03*
X227336Y35444D03*
X232887D03*
D02*
D93*
X242214Y34945D03*
X248513D03*
X0Y0D02*
M02*
