G04 EasyPC Gerber Version 21.0.3 Build 4286 *
G04 #@! TF.Part,Single*
G04 #@! TF.FileFunction,Legend,Top *
G04 #@! TF.FilePolarity,Positive *
%FSLAX45Y45*%
%MOIN*%
%ADD85C,0.00315*%
%ADD10C,0.00500*%
%ADD75C,0.00787*%
X0Y0D02*
D02*
D10*
X21492Y92045D02*
X46689D01*
X28972Y94801D02*
G75*
G03X21491Y98638I-4724D01*
G01*
G75*
G03X19523Y94778I2756J-3837*
G01*
G75*
G02X28972Y94801I4724J24*
G01*
X27004Y94831*
G75*
G03X21492Y94801I-2756J-30*
G01*
Y92045*
X46689*
Y94801*
G75*
G03X41177Y94801I-2756J0*
G01*
X39209Y94801*
X39208Y94801D02*
G75*
G02X48657I4724D01*
G01*
G75*
G03X46689Y98639I-4724J0*
G01*
G75*
G03X39208Y94801I-2756J-3837*
G01*
X48657Y90076D02*
X19524D01*
X57742Y92045D02*
X82939D01*
X58934Y53131D02*
Y42469D01*
X64871*
Y53131*
X58934*
X65222Y94801D02*
G75*
G03X57741Y98638I-4724D01*
G01*
G75*
G03X55773Y94778I2756J-3837*
G01*
G75*
G02X65222Y94801I4724J24*
G01*
X63254Y94831*
G75*
G03X57742Y94801I-2756J-30*
G01*
Y92045*
X82939*
Y94801*
G75*
G03X77427Y94801I-2756J0*
G01*
X75459Y94801*
X67644Y168516D02*
G75*
G03Y128516J-20000D01*
G01*
G75*
G03Y168516J20000*
G01*
X75458Y94801D02*
G75*
G02X84907I4724D01*
G01*
G75*
G03X82939Y98639I-4724J0*
G01*
G75*
G03X75458Y94801I-2756J-3837*
G01*
X84907Y90076D02*
X55774D01*
X146983Y31010D02*
X136321D01*
Y25073*
X146983*
Y31010*
Y39411D02*
X136321D01*
Y33474*
X146983*
Y39411*
X161060Y146209D02*
X162310D01*
X161685D02*
Y149959D01*
X161060D02*
X162310D01*
X168248Y146834D02*
X167935Y146521D01*
X167310Y146209*
X166373*
X165748Y146521*
X165435Y146834*
X165123Y147459*
Y148709*
X165435Y149334*
X165748Y149646*
X166373Y149959*
X167310*
X167935Y149646*
X168248Y149334*
X170435Y146521D02*
X171060Y146209D01*
X171685*
X172310Y146521*
X172623Y147146*
X172310Y147771*
X171685Y148084*
X171060*
X171685D02*
X172310Y148396D01*
X172623Y149021*
X172310Y149646*
X171685Y149959*
X171060*
X170435Y149646*
X166043Y56742D02*
G75*
G03X171925I2941J-16680D01*
G01*
Y60062*
X166043*
Y56742*
X227641Y154568D02*
Y150818D01*
X225766*
X225141Y151130*
X224829Y151443*
X224516Y152068*
Y153318*
X224829Y153943*
X225141Y154255*
X225766Y154568*
X227641*
X222641Y153630D02*
X222329Y154255D01*
X221704Y154568*
X220454*
X219829Y154255*
X219516Y153630*
X219829Y153005*
X220454Y152693*
X221704*
X222329Y152380*
X222641Y151755*
X222329Y151130*
X221704Y150818*
X220454*
X219829Y151130*
X219516Y151755*
X217016Y154568D02*
X215766D01*
X216391D02*
Y150818D01*
X217016Y151443*
X235718Y38413D02*
X225056D01*
Y32476*
X235718*
Y38413*
X261713Y36566D02*
X261087Y36878D01*
X260150*
X259525Y36566*
X259213Y35941*
Y35628*
X259525Y35003*
X260150Y34691*
X261713*
Y33128*
X259213*
X256713D02*
X255150Y36878D01*
X253587Y33128*
D02*
D75*
X49181Y55413D02*
Y78681D01*
X15717*
Y47736*
X32449*
X59586Y60156D02*
X63720D01*
X132381Y60655D02*
X136515D01*
X149081Y162317D02*
X179987D01*
X153987Y70317D02*
X179987D01*
X203217Y69193D02*
X244359D01*
Y74882*
X242214Y31697D02*
X251564D01*
Y38193*
X242214*
X244359Y170571D02*
X203217D01*
X253845Y105459D02*
Y66601D01*
X287310*
Y113136*
X270578*
D02*
D85*
X100217Y163770D02*
X99436Y165644D01*
X98655Y163770*
X97717Y165176D02*
X97561Y165488D01*
X97248Y165644*
X96936*
X96624Y165488*
X96467Y165176*
Y164863*
X96624Y164551*
X96936Y164394*
X97248*
X97561Y164551*
X97717Y164863*
Y165176*
X94436Y165644D02*
X94592D01*
Y163770*
X92092Y165644D02*
Y164394D01*
Y163926D02*
X90217Y165644*
Y164394D01*
Y164551D02*
X90061Y164394D01*
X89748*
X89592Y164551*
Y165020*
Y164551D02*
X89436Y164394D01*
X89124*
X88967Y164551*
Y165644*
X86467Y165488D02*
X86624Y165644D01*
X86936*
X87248*
X87561Y165488*
X87717Y165176*
Y164707*
X87561Y164551*
X87248Y164394*
X86936*
X86624Y164551*
X86467Y164707*
Y164863*
X86624Y165020*
X86936Y165176*
X87248*
X87561Y165020*
X87717Y164863*
X85217Y165644D02*
X83655D01*
X82717Y163770D02*
Y165644D01*
X81155*
X101216Y114828D02*
X100428Y116718D01*
X99641Y114828*
X98696Y116246D02*
X98539Y116561D01*
X98224Y116718*
X97909*
X97594Y116561*
X97436Y116246*
Y115931*
X97594Y115616*
X97909Y115458*
X98224*
X98539Y115616*
X98696Y115931*
Y116246*
X95389Y116718D02*
X95546D01*
Y114828*
X93027Y116718D02*
Y115458D01*
Y114986D02*
X91137Y116718*
Y115458D01*
Y115616D02*
X90980Y115458D01*
X90665*
X90507Y115616*
Y116088*
Y115616D02*
X90350Y115458D01*
X90035*
X89877Y115616*
Y116718*
X87357Y116561D02*
X87515Y116718D01*
X87830*
X88145*
X88460Y116561*
X88617Y116246*
Y115773*
X88460Y115616*
X88145Y115458*
X87830*
X87515Y115616*
X87357Y115773*
Y115931*
X87515Y116088*
X87830Y116246*
X88145*
X88460Y116088*
X88617Y115931*
X86098Y116718D02*
X84523D01*
X83578D02*
Y114828D01*
Y115773D02*
X82003D01*
Y116718D02*
Y114828D01*
X0Y0D02*
M02*
